<svg width="63" height="57" viewBox="0 0 63 57" fill="none" xmlns="http://www.w3.org/2000/svg">
<path d="M38.3113 19.4765C40.9614 20.7215 43.4743 21.854 45.9372 23.0856C46.7599 23.498 47.0368 23 47.427 22.5207C49.9716 19.3908 53.0093 16.9945 56.9356 15.9128C58.6153 15.4496 60.3188 15.1952 62.0617 15.1658C62.6867 15.1551 63.0163 15.3104 62.7236 16.0092C62.7078 16.0493 62.7025 16.0975 62.692 16.1404C62.3043 17.5728 62.3122 19.4042 61.4157 20.3225C60.4875 21.2703 58.6417 20.5742 57.1993 20.6358C55.4273 20.7081 53.6501 20.5635 51.8886 20.9116C50.5069 21.1847 49.2808 21.7416 48.2023 22.6706C47.4323 23.3346 47.166 23.747 48.379 24.2798C50.9446 25.4097 53.418 26.743 55.7042 28.3923C61.7321 32.7431 64.1185 39.0619 62.5126 46.3847C61.1837 52.441 56.8223 56.2081 50.5201 56.8989C45.4837 57.4505 41.3833 55.7369 38.0371 51.9483C36.8795 50.6364 35.8907 49.1986 34.8491 47.7127C34.3323 47.9777 34.1292 48.4918 33.8497 48.9095C28.8423 56.4893 19.927 57.9404 13.8885 56.4786C6.65028 54.7302 1.17084 48.1973 0.145088 40.2962C-0.862201 32.5316 3.45965 24.5582 10.4896 21.3908C15.5788 19.0989 20.3832 20.0173 24.887 23.0589C28.8238 25.7176 31.7007 29.3508 33.8603 33.5731C35.1207 36.0391 36.2519 38.5746 37.5282 41.26C39.1129 37.9052 40.6371 34.711 42.1348 31.5062C43.4612 28.6627 43.4506 28.6493 40.6634 27.399C36.7213 25.6292 32.8635 23.7014 29.3538 21.1284C27.8376 20.0173 26.4269 18.7803 25.2298 17.3158C22.3424 13.7923 21.3825 9.87251 23.4209 5.63949C25.475 1.37167 29.2246 -0.108955 33.6704 0.00617491C38.7781 0.137369 42.8151 3.18696 43.6167 7.56992C44.2839 11.2166 43.2819 14.4456 40.732 17.131C39.9963 17.9048 39.2026 18.6224 38.3192 19.4738L38.3113 19.4765ZM18.7773 56.4036C23.7215 56.1626 28.6999 54.433 32.4179 49.8519C34.5248 47.2575 34.5485 47.2495 32.9901 44.3793C31.0625 40.8263 29.6307 37.0217 27.5291 33.5597C25.0425 29.466 22.3186 25.5783 18.1392 23.0615C15.236 21.3132 12.2431 20.9437 9.18169 22.7429C2.3838 26.735 -0.904392 35.0538 1.22357 42.9308C3.3489 50.7997 10.3788 56.417 18.7799 56.4036H18.7773ZM61.5845 46.3766C61.6003 43.2306 60.3319 40.6041 57.9139 38.098C54.159 34.2023 49.5866 31.5704 44.7743 29.2946C44.0808 28.9653 43.8672 29.2116 43.5983 29.7899C41.821 33.616 40.02 37.4313 38.2243 41.2493C38.0318 41.6617 37.871 42.0311 38.1162 42.5158C40.0649 46.3713 42.0873 50.1786 45.2912 53.1532C48.1522 55.8092 51.4035 56.5723 54.987 54.8668C58.821 53.0434 61.2812 50.1277 61.5845 46.3766ZM43.2001 9.50838C43.303 8.02508 42.9259 6.60872 42.1665 5.29143C38.9996 -0.216052 29.9445 -1.23883 25.6358 3.42258C23.9588 5.23788 23.6503 7.46818 24.8421 9.63422C25.2298 10.3357 25.6991 11.0131 26.2397 11.5995C29.2958 14.9302 33.2195 16.9624 37.1379 18.9945C37.5203 19.1927 37.7866 19.1043 38.0951 18.858C41.0642 16.4724 43.2924 13.6718 43.1975 9.5057L43.2001 9.50838Z" fill="white"/>
</svg>
