<svg width="108" height="13" viewBox="0 0 108 13" fill="none" xmlns="http://www.w3.org/2000/svg">
<path d="M9.04102 12.5953L7.09704 7.86992L5.18169 12.6133L4.52544 12.6164L1.9499 6.4877L0.785852 6.49314L0.782932 5.86815L4.59539 5.85034L4.59831 6.47533L3.48114 6.48055L5.25138 10.8083L5.28263 10.8081L7.25924 5.79882L7.7358 5.7966L9.76695 10.7872L9.7982 10.787L11.4967 6.44309L10.4029 6.4482L10.4 5.82321L13.314 5.80959L13.317 6.43459L12.1764 6.43992L9.70507 12.5922L9.04102 12.5953ZM17.7625 11.8201L18.8172 11.8152L18.8201 12.4402L15.1873 12.4572L15.1844 11.8322L16.3563 11.8267L16.3091 1.72524L15.1372 1.73072L15.1343 1.10572L17.7124 1.09368L17.7392 6.8358L17.7705 6.83566C17.9873 6.4336 18.2723 6.12237 18.6255 5.90196C18.9838 5.68154 19.4442 5.57001 20.0067 5.56738C20.7307 5.564 21.2654 5.7464 21.6109 6.11458C21.9615 6.47753 22.1385 7.00014 22.1416 7.68243L22.1609 11.7996L23.2937 11.7943L23.2966 12.4193L19.7029 12.4361L19.7 11.8111L20.7546 11.8061L20.7346 7.50931C20.7325 7.07182 20.6347 6.75717 20.4411 6.56536C20.2475 6.36835 19.971 6.27068 19.6116 6.27236C19.3512 6.27358 19.1066 6.3268 18.878 6.43204C18.6545 6.53725 18.4573 6.69963 18.2865 6.91918C18.1208 7.13871 17.9893 7.42058 17.892 7.76479C17.7946 8.10899 17.7471 8.52328 17.7494 9.00765L17.7625 11.8201ZM32.5293 12.3761C32.3108 12.4188 32.1078 12.4458 31.9203 12.4571C31.7329 12.4684 31.5845 12.4743 31.4751 12.4748C31.199 12.4761 30.9698 12.4537 30.7873 12.4077C30.61 12.3669 30.4691 12.305 30.3645 12.2222C30.26 12.1393 30.184 12.0381 30.1365 11.9186C30.0891 11.799 30.0598 11.6663 30.0487 11.5205L30.0097 11.5207C29.8648 11.7245 29.7093 11.8971 29.5433 12.0385C29.3773 12.1799 29.2034 12.2927 29.0215 12.3769C28.8396 12.4611 28.6523 12.5218 28.4598 12.5592C28.2725 12.5965 28.0825 12.6157 27.8898 12.6166C27.5721 12.618 27.288 12.5751 27.0376 12.4877C26.7872 12.4056 26.5757 12.2868 26.4031 12.1313C26.2305 11.9759 26.0994 11.7916 26.0099 11.5785C25.9203 11.3601 25.8749 11.1207 25.8737 10.8603C25.8703 10.1364 26.2219 9.58526 26.9285 9.20695C27.6403 8.82341 28.6653 8.61549 30.0038 8.5832C30.0079 8.3488 30.0095 8.13785 30.0086 7.95036C30.0129 7.76283 30.0147 7.57793 30.0138 7.39564C30.0116 6.92169 29.9111 6.59142 29.7123 6.40485C29.5187 6.21304 29.211 6.11813 28.7891 6.1201C28.5079 6.12141 28.2554 6.15384 28.0317 6.21739C27.8133 6.28091 27.634 6.36508 27.4938 6.4699C27.6194 6.58911 27.7111 6.71629 27.7691 6.85143C27.8322 6.98135 27.864 7.11141 27.8646 7.24162C27.8657 7.46036 27.7962 7.64298 27.6563 7.78947C27.5163 7.93596 27.324 8.00978 27.0792 8.01092C26.975 8.01141 26.8734 7.99626 26.7743 7.96547C26.6752 7.93468 26.589 7.88561 26.5158 7.81824C26.4425 7.75087 26.3822 7.66782 26.3349 7.56908C26.2928 7.46511 26.2714 7.34542 26.2707 7.21C26.2697 6.99646 26.3261 6.79047 26.4397 6.59202C26.5586 6.38834 26.7322 6.20784 26.9606 6.05052C27.1943 5.89317 27.4828 5.76682 27.8261 5.67147C28.1746 5.57609 28.5806 5.52732 29.0441 5.52515C29.4191 5.5234 29.75 5.55831 30.0368 5.62989C30.3288 5.70144 30.5742 5.82269 30.7729 5.99364C30.9768 6.15935 31.1289 6.3826 31.2292 6.66339C31.3346 6.94415 31.3884 7.29286 31.3903 7.70952C31.3908 7.81369 31.389 7.98557 31.3849 8.22518C31.386 8.45955 31.3846 8.71998 31.3807 9.00646C31.3769 9.29294 31.373 9.58462 31.3692 9.88152C31.3706 10.1732 31.3718 10.431 31.3728 10.6549C31.3739 10.8841 31.38 11.0768 31.3911 11.233C31.4023 11.384 31.4289 11.5063 31.471 11.5998C31.5131 11.6882 31.5759 11.753 31.6594 11.7942C31.7429 11.8303 31.8602 11.848 32.0112 11.8473C32.1414 11.8467 32.3132 11.8303 32.5266 11.798L32.5293 12.3761ZM30.0065 9.16913C29.4389 9.18741 28.9807 9.23382 28.6321 9.30837C28.2835 9.3777 28.0131 9.47793 27.821 9.60903C27.6289 9.73493 27.4994 9.88919 27.4326 10.0718C27.3657 10.2544 27.3328 10.4629 27.3339 10.6973C27.3358 11.1035 27.4206 11.4078 27.5882 11.6101C27.761 11.8073 27.9958 11.9051 28.2927 11.9037C28.4541 11.903 28.6337 11.8683 28.8313 11.7997C29.0341 11.731 29.2237 11.6207 29.4 11.4689C29.5764 11.3118 29.7213 11.108 29.8347 10.8575C29.9533 10.6069 30.0118 10.2967 30.01 9.92693L30.0065 9.16913ZM39.8719 10.7793C39.7342 11.3893 39.5045 11.8409 39.1829 12.1341C38.8614 12.4221 38.4167 12.5674 37.849 12.57C37.5522 12.5714 37.2838 12.5362 37.0438 12.4644C36.8091 12.3926 36.6081 12.2789 36.4407 12.1235C36.2733 11.9628 36.1447 11.7603 36.055 11.5159C35.9653 11.2663 35.9196 10.9644 35.918 10.6103L35.898 6.32907L34.7261 6.33454L34.7232 5.70955L35.895 5.70408L35.888 4.18847L37.2931 3.94752L37.3013 5.6975L39.3325 5.68801L39.3354 6.31301L37.3042 6.3225L37.325 10.7756C37.326 10.9891 37.3451 11.1635 37.3821 11.2988C37.4244 11.434 37.4822 11.5405 37.5555 11.6183C37.6288 11.696 37.715 11.7503 37.8141 11.7811C37.9132 11.8067 38.0252 11.8192 38.1502 11.8186C38.3169 11.8178 38.46 11.7937 38.5796 11.7463C38.6991 11.6936 38.8029 11.6176 38.891 11.5183C38.9843 11.4137 39.0618 11.2857 39.1236 11.1344C39.1906 10.983 39.2523 10.8082 39.3086 10.6101C39.4077 10.6252 39.5041 10.6456 39.598 10.6712C39.6919 10.6968 39.7832 10.7328 39.8719 10.7793ZM50.4981 11.6672L51.6699 11.6617L51.6729 12.2867L47.9229 12.3042L47.92 11.6792L49.0918 11.6737L49.0666 6.26753L47.8947 6.27301L47.8918 5.64802L50.4699 5.63597L50.4981 11.6672ZM49.7565 3.43615C49.6211 3.43679 49.496 3.41654 49.3812 3.37541C49.2716 3.32904 49.1723 3.2644 49.0834 3.18148C48.9997 3.09854 48.9341 3.00249 48.8867 2.89334C48.8393 2.77897 48.8153 2.65148 48.8146 2.51086C48.814 2.37544 48.8369 2.25033 48.8832 2.13553C48.9348 2.02071 49.002 1.92143 49.0849 1.83771C49.1679 1.75399 49.2665 1.68842 49.3809 1.64101C49.4953 1.5936 49.6175 1.56959 49.7478 1.56899C49.878 1.56838 50.0005 1.59124 50.1153 1.63758C50.23 1.67871 50.3293 1.74075 50.413 1.82369C50.5019 1.90661 50.5701 2.00525 50.6175 2.11962C50.6649 2.22877 50.6889 2.35366 50.6896 2.49428C50.6902 2.63491 50.6648 2.76263 50.6133 2.87746C50.5669 2.99226 50.5023 3.09152 50.4193 3.17524C50.3364 3.25375 50.2377 3.31672 50.1233 3.36413C50.009 3.41154 49.8867 3.43555 49.7565 3.43615ZM58.6973 7.80848C58.6697 7.47007 58.6111 7.18388 58.5214 6.94992C58.437 6.71594 58.3215 6.52637 58.175 6.38122C58.0285 6.23607 57.8509 6.13273 57.6423 6.07121C57.4389 6.00445 57.2043 5.97169 56.9387 5.97293C56.7356 5.97388 56.5482 5.99559 56.3765 6.03806C56.2048 6.07532 56.0567 6.13591 55.9321 6.21983C55.8074 6.29853 55.7089 6.40316 55.6366 6.53371C55.5695 6.66423 55.5364 6.82064 55.5373 7.00293C55.5381 7.18522 55.5701 7.33611 55.6331 7.45561C55.7014 7.56988 55.8086 7.67354 55.9549 7.76661C56.1064 7.85445 56.2969 7.93949 56.5264 8.02176C56.7612 8.10399 57.0481 8.20161 57.3872 8.31461C57.6584 8.4071 57.9271 8.5048 58.1932 8.60772C58.4593 8.71065 58.6969 8.83975 58.906 8.99502C59.1203 9.15027 59.293 9.33957 59.4243 9.56292C59.5555 9.78106 59.6219 10.049 59.6233 10.3667C59.625 10.7261 59.5458 11.0389 59.3855 11.3053C59.2253 11.5717 59.0128 11.7914 58.748 11.9645C58.4832 12.1377 58.1817 12.2667 57.8435 12.3516C57.5054 12.4365 57.1592 12.4798 56.8051 12.4814C56.6176 12.4823 56.417 12.4728 56.2034 12.453C55.9949 12.4331 55.7865 12.4055 55.578 12.37C55.3747 12.3345 55.1792 12.2937 54.9915 12.2477C54.8089 12.1965 54.6472 12.1452 54.5064 12.0937L54.4411 9.8284L54.9801 9.82588C55.008 10.2216 55.0643 10.5547 55.1489 10.8251C55.2387 11.0903 55.3594 11.3033 55.5112 11.464C55.6682 11.6248 55.8563 11.7385 56.0753 11.8052C56.2996 11.8718 56.5602 11.9045 56.8571 11.9031C57.081 11.902 57.2867 11.8828 57.474 11.8455C57.6665 11.8029 57.8329 11.7397 57.9731 11.6557C58.1133 11.5665 58.2221 11.4514 58.2996 11.3104C58.3823 11.1694 58.4232 10.9999 58.4222 10.802C58.4214 10.6301 58.3895 10.4896 58.3265 10.3806C58.2635 10.2663 58.1641 10.1652 58.0282 10.0773C57.8924 9.98935 57.7175 9.90684 57.5036 9.82971C57.2897 9.75258 57.0341 9.66263 56.7367 9.55985C56.4394 9.45707 56.1524 9.35164 55.8759 9.24356C55.6045 9.13024 55.3643 8.99595 55.1552 8.84067C54.9461 8.68019 54.7786 8.48826 54.6525 8.26489C54.5265 8.04152 54.4627 7.76838 54.4612 7.44546C54.4595 7.0913 54.531 6.78628 54.6757 6.53039C54.8203 6.26929 55.012 6.05485 55.2508 5.88707C55.4948 5.71926 55.7729 5.59556 56.085 5.51598C56.4024 5.43637 56.7303 5.39577 57.0688 5.39419C57.2407 5.39339 57.4204 5.40297 57.608 5.42292C57.7956 5.43767 57.9806 5.46025 58.163 5.49064C58.3507 5.52102 58.5279 5.55665 58.6948 5.59753C58.8668 5.63319 59.0233 5.66892 59.1641 5.70472L59.2286 7.806L58.6973 7.80848ZM77.0986 12.3866C76.6819 12.3886 76.2857 12.3071 75.9099 12.1422C75.5394 11.972 75.1553 11.7004 74.7577 11.3272C74.353 11.6572 73.9115 11.9197 73.4332 12.1147C72.9602 12.3096 72.4528 12.4083 71.9112 12.4109C71.4528 12.413 71.0072 12.3422 70.5742 12.1983C70.1412 12.0545 69.7548 11.8454 69.415 11.5709C69.0804 11.2965 68.808 10.9618 68.5978 10.5669C68.3928 10.1669 68.2891 9.71421 68.2868 9.209C68.2846 8.74026 68.3686 8.3284 68.5388 7.97344C68.709 7.61847 68.9289 7.30754 69.1985 7.04066C69.4681 6.77377 69.7691 6.54319 70.1016 6.34893C70.4392 6.15464 70.7691 5.98122 71.0913 5.82867C70.9967 5.6312 70.9046 5.4311 70.8151 5.22839C70.7308 5.02045 70.6543 4.81508 70.5856 4.61227C70.517 4.40426 70.4613 4.19879 70.4187 3.99586C70.3813 3.79291 70.3621 3.59768 70.3613 3.41018C70.3597 3.07164 70.4233 2.74843 70.5521 2.44053C70.686 2.1274 70.8696 1.8531 71.1029 1.61764C71.3414 1.38214 71.627 1.19331 71.9596 1.05113C72.2923 0.908944 72.6618 0.836905 73.068 0.835006C73.3701 0.833595 73.6594 0.876514 73.9358 0.963765C74.2175 1.04578 74.4629 1.17485 74.672 1.35095C74.8864 1.52183 75.0566 1.73979 75.1829 2.00482C75.3143 2.26463 75.3808 2.56901 75.3825 2.91796C75.3843 3.31379 75.3078 3.6553 75.1529 3.94249C74.9979 4.22446 74.7908 4.47283 74.5313 4.68759C74.2771 4.90232 73.9838 5.0964 73.6512 5.26983C73.3239 5.43803 72.9887 5.60366 72.6457 5.76672C72.8034 6.05765 72.995 6.3901 73.2207 6.76405C73.4516 7.13276 73.6903 7.50665 73.9369 7.88571C74.1835 8.25956 74.4247 8.61521 74.6607 8.95265C74.9018 9.29007 75.1141 9.57033 75.2974 9.79344C75.4941 9.53731 75.6726 9.26824 75.8327 8.98624C75.998 8.699 76.1373 8.4145 76.2506 8.13271C76.369 7.8457 76.4615 7.56662 76.5279 7.29547C76.5996 7.0243 76.6427 6.76889 76.6572 6.52923L75.0166 6.5369L75.0136 5.91191L78.787 5.89428L78.79 6.51927L77.3603 6.52595C77.2644 7.17745 77.0773 7.83458 76.7992 8.49734C76.5262 9.15488 76.1749 9.76069 75.7452 10.3148C76.1116 10.7141 76.4489 10.999 76.757 11.1694C77.0651 11.3399 77.3649 11.4244 77.6566 11.4231C77.891 11.422 78.1251 11.374 78.3591 11.2791C78.593 11.1843 78.8346 11.0504 79.0838 10.8773C79.157 10.9447 79.2172 11.0095 79.2644 11.0718C79.3167 11.134 79.3718 11.2119 79.4295 11.3054C79.0304 11.7083 78.6358 11.9888 78.2459 12.1469C77.8613 12.3049 77.4788 12.3848 77.0986 12.3866ZM74.2944 10.8294C74.1635 10.6842 74.0143 10.5052 73.8466 10.2924C73.6841 10.0796 73.5112 9.84605 73.3277 9.5917C73.1494 9.33732 72.9685 9.06994 72.7849 8.78954C72.6012 8.50394 72.4228 8.22352 72.2497 7.94828C72.0817 7.66781 71.9216 7.39773 71.7693 7.13802C71.6223 6.87829 71.4962 6.64189 71.391 6.42884C71.1677 6.57051 70.9601 6.72513 70.7682 6.89269C70.5762 7.06026 70.4105 7.24854 70.2708 7.45752C70.1312 7.66651 70.0203 7.90141 69.9382 8.16221C69.8612 8.41778 69.8235 8.70702 69.825 9.02994C69.8271 9.46743 69.8992 9.84991 70.0413 10.1774C70.1887 10.4996 70.3774 10.767 70.6076 10.9794C70.843 11.1919 71.1067 11.3521 71.3989 11.4601C71.6963 11.5629 71.996 11.6136 72.2981 11.6122C72.6574 11.6105 73.0035 11.5386 73.3361 11.3964C73.674 11.2542 73.9934 11.0652 74.2944 10.8294ZM74.3277 2.89946C74.3265 2.64946 74.289 2.43348 74.2153 2.25154C74.1415 2.06959 74.0445 1.9216 73.9241 1.80758C73.8038 1.68835 73.6627 1.60046 73.501 1.54393C73.3445 1.48737 73.1803 1.45949 73.0084 1.46029C72.8157 1.46119 72.6336 1.4959 72.462 1.56441C72.2957 1.62769 72.1477 1.72213 72.0181 1.84774C71.8936 1.97332 71.7954 2.12482 71.7233 2.30224C71.6512 2.47967 71.6157 2.68035 71.6167 2.90431C71.618 3.18035 71.6769 3.51081 71.7932 3.89568C71.9148 4.28054 72.1097 4.73276 72.3777 5.25234C72.6531 5.12085 72.9103 4.97902 73.1492 4.82686C73.388 4.6747 73.593 4.50707 73.764 4.32398C73.9402 4.13565 74.0773 3.92668 74.1752 3.69705C74.2782 3.46219 74.3291 3.19633 74.3277 2.89946ZM90.9641 12.3218C90.5474 12.3238 90.1512 12.2423 89.7754 12.0774C89.4048 11.9072 89.0207 11.6356 88.6232 11.2624C88.2184 11.5925 87.777 11.8549 87.2987 12.0499C86.8256 12.2448 86.3183 12.3435 85.7766 12.3461C85.3183 12.3482 84.8727 12.2774 84.4397 12.1336C84.0067 11.9897 83.6203 11.7806 83.2805 11.5062C82.9459 11.2317 82.6735 10.897 82.4633 10.5021C82.2583 10.1021 82.1546 9.64941 82.1523 9.14421C82.1501 8.67547 82.2341 8.26361 82.4043 7.90864C82.5745 7.55368 82.7944 7.24275 83.064 6.97586C83.3336 6.70898 83.6346 6.4784 83.967 6.28414C84.3047 6.08985 84.6346 5.91643 84.9568 5.76388C84.8621 5.5664 84.77 5.36631 84.6806 5.1636C84.5963 4.95566 84.5198 4.75029 84.4511 4.54748C84.3824 4.33947 84.3268 4.13399 84.2842 3.93107C84.2468 3.72811 84.2276 3.53289 84.2267 3.34539C84.2252 3.00685 84.2888 2.68364 84.4175 2.37574C84.5515 2.06261 84.7351 1.78831 84.9684 1.55284C85.2069 1.31735 85.4924 1.12851 85.8251 0.986334C86.1578 0.844152 86.5272 0.772113 86.9335 0.770214C87.2356 0.768803 87.5248 0.811722 87.8013 0.898973C88.0829 0.980991 88.3283 1.11005 88.5375 1.28616C88.7518 1.45704 88.9221 1.67499 89.0484 1.94003C89.1798 2.19984 89.2463 2.50422 89.2479 2.85317C89.2498 3.249 89.1733 3.59051 89.0183 3.87769C88.8634 4.15967 88.6562 4.40804 88.3968 4.62279C88.1426 4.83753 87.8492 5.03161 87.5167 5.20504C87.1894 5.37324 86.8542 5.53887 86.5112 5.70193C86.6688 5.99286 86.8605 6.3253 87.0862 6.69925C87.3171 7.06797 87.5558 7.44186 87.8024 7.82092C88.0489 8.19477 88.2902 8.55042 88.5261 8.88786C88.7673 9.22528 88.9795 9.50554 89.1629 9.72864C89.3596 9.47251 89.538 9.20345 89.6982 8.92145C89.8635 8.63421 90.0028 8.3497 90.1161 8.06792C90.2345 7.78091 90.327 7.50183 90.3934 7.23068C90.4651 6.95951 90.5081 6.7041 90.5226 6.46444L88.882 6.47211L88.8791 5.84712L92.6525 5.82948L92.6554 6.45448L91.2258 6.46116C91.1298 7.11265 90.9428 7.76979 90.6646 8.43255C90.3917 9.09008 90.0403 9.6959 89.6106 10.25C89.9771 10.6493 90.3144 10.9342 90.6224 11.1047C90.9305 11.2751 91.2304 11.3596 91.5221 11.3583C91.7565 11.3572 91.9906 11.3092 92.2245 11.2144C92.4585 11.1195 92.7 10.9856 92.9492 10.8125C93.0225 10.8799 93.0827 10.9447 93.1298 11.007C93.1822 11.0693 93.2373 11.1471 93.295 11.2406C92.8958 11.6435 92.5013 11.924 92.1114 12.0821C91.7267 12.2401 91.3443 12.32 90.9641 12.3218ZM88.1599 10.7646C88.029 10.6194 87.8797 10.4404 87.7121 10.2276C87.5496 10.0148 87.3766 9.78126 87.1932 9.52691C87.0149 9.27253 86.8339 9.00514 86.6503 8.72475C86.4667 8.43915 86.2883 8.15873 86.1152 7.88349C85.9472 7.60302 85.7871 7.33293 85.6348 7.07323C85.4878 6.81349 85.3616 6.5771 85.2565 6.36405C85.0332 6.50572 84.8256 6.66034 84.6336 6.8279C84.4417 6.99547 84.2759 7.18374 84.1363 7.39273C83.9966 7.60172 83.8857 7.83662 83.8036 8.09742C83.7267 8.35299 83.689 8.64223 83.6905 8.96515C83.6925 9.40264 83.7646 9.78512 83.9068 10.1126C84.0541 10.4348 84.2429 10.7022 84.4731 10.9146C84.7084 11.1271 84.9722 11.2873 85.2644 11.3953C85.5617 11.4981 85.8614 11.5488 86.1635 11.5474C86.5229 11.5457 86.8689 11.4738 87.2016 11.3316C87.5395 11.1894 87.8589 11.0004 88.1599 10.7646ZM88.1932 2.83466C88.192 2.58467 88.1545 2.36869 88.0807 2.18674C88.007 2.0048 87.9099 1.85681 87.7896 1.74279C87.6693 1.62356 87.5282 1.53567 87.3665 1.47914C87.21 1.42258 87.0458 1.3947 86.8739 1.3955C86.6812 1.3964 86.4991 1.43111 86.3275 1.49962C86.1611 1.56289 86.0131 1.65734 85.8835 1.78294C85.7591 1.90853 85.6609 2.06003 85.5888 2.23745C85.5167 2.41487 85.4812 2.61556 85.4822 2.83952C85.4835 3.11556 85.5423 3.44602 85.6587 3.83089C85.7803 4.21574 85.9751 4.66796 86.2432 5.18755C86.5186 5.05605 86.7758 4.91423 87.0146 4.76207C87.2535 4.60991 87.4585 4.44228 87.6295 4.25919C87.8057 4.07086 87.9427 3.86189 88.0406 3.63226C88.1437 3.3974 88.1945 3.13154 88.1932 2.83466ZM102.959 1.93753C103.106 2.09309 103.224 2.26182 103.313 2.44369C103.403 2.62036 103.448 2.79984 103.449 2.98213C103.449 3.10713 103.426 3.22442 103.38 3.33402C103.334 3.4384 103.269 3.52985 103.186 3.60836C103.108 3.68685 103.015 3.74979 102.906 3.79717C102.796 3.83935 102.677 3.86074 102.547 3.86135C102.427 3.86191 102.312 3.84422 102.203 3.80827C102.093 3.76712 101.994 3.70768 101.905 3.62997C101.816 3.55226 101.745 3.45624 101.693 3.3419C101.64 3.22756 101.613 3.09227 101.613 2.93602C101.611 2.70165 101.675 2.45395 101.804 2.19293C101.939 1.92667 102.133 1.68358 102.387 1.46364C102.646 1.24367 102.968 1.05987 103.353 0.91224C103.738 0.764607 104.18 0.689622 104.68 0.687286C105.175 0.684974 105.613 0.755845 105.994 0.899901C106.38 1.04393 106.704 1.23773 106.965 1.4813C107.232 1.71964 107.434 1.99475 107.571 2.30661C107.707 2.61847 107.777 2.94367 107.778 3.28221C107.781 3.94887 107.516 4.57512 106.982 5.16095C106.765 5.40156 106.518 5.63188 106.243 5.85191C105.968 6.07195 105.709 6.30233 105.465 6.54306C105.227 6.78376 105.025 7.04772 104.86 7.33496C104.7 7.61696 104.62 7.94025 104.622 8.30483C104.622 8.37774 104.625 8.46367 104.631 8.5626C104.642 8.6563 104.655 8.7552 104.671 8.85929C104.588 8.89093 104.497 8.91479 104.398 8.93088C104.305 8.94174 104.214 8.94737 104.125 8.94778C104.04 8.62005 103.997 8.31556 103.996 8.03431C103.994 7.76348 104.027 7.51854 104.094 7.29947C104.161 7.08041 104.246 6.88209 104.349 6.70452C104.457 6.52172 104.576 6.3545 104.706 6.20285C104.841 6.04597 104.975 5.8969 105.11 5.75564C105.271 5.57781 105.421 5.40523 105.561 5.23791C105.701 5.07059 105.82 4.89034 105.918 4.69717C106.021 4.50398 106.101 4.29267 106.157 4.06323C106.218 3.82857 106.248 3.5602 106.247 3.25812C106.245 2.90396 106.202 2.60467 106.118 2.36027C106.033 2.11067 105.915 1.90809 105.763 1.75255C105.612 1.59701 105.429 1.48588 105.215 1.41917C105.006 1.34723 104.772 1.31187 104.511 1.31308C104.199 1.31454 103.905 1.3654 103.629 1.46564C103.354 1.56589 103.13 1.72319 102.959 1.93753ZM104.43 12.2589C104.279 12.2596 104.138 12.2342 104.007 12.1827C103.882 12.1312 103.77 12.0589 103.67 11.9656C103.571 11.8723 103.492 11.7607 103.434 11.6307C103.382 11.5008 103.355 11.3577 103.354 11.2014C103.354 11.0452 103.382 10.9018 103.438 10.7713C103.495 10.6356 103.57 10.5207 103.663 10.4265C103.762 10.3323 103.876 10.2589 104.006 10.2062C104.136 10.1483 104.276 10.119 104.427 10.1183C104.573 10.1176 104.711 10.143 104.842 10.1944C104.972 10.2459 105.087 10.3183 105.187 10.4116C105.286 10.5049 105.362 10.6165 105.415 10.7465C105.473 10.8764 105.502 11.0195 105.503 11.1757C105.503 11.332 105.475 11.478 105.419 11.6136C105.367 11.7441 105.292 11.859 105.194 11.9584C105.095 12.0527 104.981 12.1261 104.851 12.1788C104.721 12.2315 104.581 12.2582 104.43 12.2589Z" fill="black"/>
</svg>
