<svg width="469" height="150" viewBox="0 0 469 150" fill="none" xmlns="http://www.w3.org/2000/svg">
<rect y="101.5" width="53" height="6" transform="rotate(-90 0 101.5)" fill="#F4772F"/>
<path d="M74.8438 37.0938C74.8438 44.2812 73.1146 49.9688 69.6562 54.1562C67.9479 56.2188 65.8438 57.8125 63.3438 58.9375C60.8438 60.0625 57.9792 60.625 54.75 60.625C51.3542 60.625 48.3958 60.0625 45.875 58.9375C43.3542 57.8125 41.2604 56.2188 39.5938 54.1562C37.9271 52.0938 36.6771 49.6146 35.8438 46.7188C35.0104 43.8021 34.5938 40.5729 34.5938 37.0312C34.5938 33.4896 35.0104 30.2812 35.8438 27.4062C36.6771 24.5104 37.9271 22.0417 39.5938 20C41.2604 17.9583 43.3646 16.3854 45.9062 15.2812C48.4479 14.1562 51.4167 13.5938 54.8125 13.5938C58.0417 13.5938 60.8958 14.1562 63.375 15.2812C65.8542 16.3854 67.9479 17.9583 69.6562 20C73.1146 24.1875 74.8438 29.8854 74.8438 37.0938ZM41.6875 37.0938C41.6875 40.2604 41.9167 43.0833 42.375 45.5625C42.8542 48.0417 43.6146 50.1458 44.6562 51.875C45.6979 53.5833 47.0417 54.8958 48.6875 55.8125C50.3542 56.7292 52.375 57.1875 54.75 57.1875C57.125 57.1875 59.1458 56.7292 60.8125 55.8125C62.4792 54.8958 63.8229 53.5833 64.8438 51.875C65.8854 50.1458 66.625 48.0417 67.0625 45.5625C67.5208 43.0833 67.75 40.2604 67.75 37.0938C67.75 33.9271 67.5208 31.1042 67.0625 28.625C66.625 26.125 65.8854 24.0208 64.8438 22.3125C63.8229 20.6042 62.4896 19.3021 60.8438 18.4062C59.1979 17.5104 57.1875 17.0625 54.8125 17.0625C52.4375 17.0625 50.4167 17.5104 48.75 18.4062C47.0833 19.3021 45.7292 20.6042 44.6875 22.3125C43.625 24.0208 42.8542 26.125 42.375 28.625C41.9167 31.1042 41.6875 33.9271 41.6875 37.0938ZM107.181 25.6875H118.619V53.0312C118.619 54.8021 119.098 55.9583 120.056 56.5C121.015 57.0417 122.285 57.3125 123.869 57.3125H124.056V60H113.9L113.056 54.8125H112.744C111.535 57.0833 110.046 58.625 108.275 59.4375C106.504 60.2292 104.535 60.625 102.369 60.625C98.8896 60.625 96.2854 59.6354 94.5563 57.6562C92.7229 55.5729 91.8063 52.3854 91.8063 48.0938V32.75C91.8063 30.9583 91.3167 29.7812 90.3375 29.2188C89.3583 28.6562 88.0979 28.375 86.5563 28.375H86.3688V25.6875H97.8375V47.7812C97.8375 50.5729 98.3063 52.7292 99.2438 54.25C100.202 55.7708 101.973 56.5312 104.556 56.5312C105.973 56.5312 107.192 56.2812 108.213 55.7812C109.233 55.2604 110.067 54.5521 110.713 53.6562C111.379 52.7396 111.858 51.6562 112.15 50.4062C112.463 49.1354 112.619 47.7292 112.619 46.1875V33C112.619 31.0833 112.14 29.8333 111.181 29.25C110.244 28.6667 108.973 28.375 107.369 28.375H107.181V25.6875ZM150.738 57.3125H152.519V60H134.05V57.3125H134.238C135.842 57.3125 137.113 57.0208 138.05 56.4375C139.008 55.8542 139.488 54.6146 139.488 52.7188V32.75C139.488 30.9583 138.998 29.7812 138.019 29.2188C137.04 28.6562 135.779 28.375 134.238 28.375H134.05V25.6875H143.894L145.113 32.0312H145.425C146.05 30.6146 146.685 29.3854 147.331 28.3438C147.998 27.3021 148.863 26.5 149.925 25.9375C150.988 25.3542 152.415 25.0625 154.206 25.0625C158.81 25.0625 161.113 26.6146 161.113 29.7188C161.113 32.7604 159.123 34.2812 155.144 34.2812C155.144 32.5104 154.894 31.2396 154.394 30.4688C153.894 29.6771 153.019 29.2812 151.769 29.2812C150.977 29.2812 150.269 29.5 149.644 29.9375C148.435 30.8125 147.498 32.2604 146.831 34.2812C146.498 35.1979 146.238 36.1771 146.05 37.2188C145.842 38.2396 145.696 39.25 145.613 40.25C145.529 41.25 145.488 42.1562 145.488 42.9688V53.0312C145.488 54.8021 145.967 55.9583 146.925 56.5C147.883 57.0417 149.154 57.3125 150.738 57.3125ZM92.8625 124.625C90.7792 124.625 88.9354 124.406 87.3312 123.969C85.7479 123.51 84.425 122.896 83.3625 122.125C81.1958 120.562 80.1125 118.396 80.1125 115.625C80.1125 114.333 80.5083 113.292 81.3 112.5C82.1125 111.708 83.2583 111.312 84.7375 111.312C84.8 112.646 84.9979 113.927 85.3312 115.156C85.6854 116.385 86.2062 117.469 86.8937 118.406C87.5812 119.344 88.4562 120.094 89.5187 120.656C90.5812 121.219 91.8625 121.5 93.3625 121.5C96.2375 121.5 98.4771 120.812 100.081 119.438C101.706 118.042 102.519 116.042 102.519 113.438C102.519 111.146 101.8 109.281 100.362 107.844C99.5917 107.094 98.5708 106.375 97.3 105.688C96.05 104.979 94.4875 104.24 92.6125 103.469C90.6333 102.656 88.9042 101.792 87.425 100.875C85.9458 99.9375 84.7167 98.8958 83.7375 97.75C81.8 95.5417 80.8312 92.7083 80.8312 89.25C80.8312 87.4167 81.175 85.7812 81.8625 84.3438C82.5708 82.9062 83.55 81.6875 84.8 80.6875C87.3625 78.6667 90.7062 77.6562 94.8312 77.6562C96.7479 77.6562 98.4458 77.8542 99.925 78.25C101.404 78.6458 102.654 79.1771 103.675 79.8438C105.758 81.2188 106.8 82.8854 106.8 84.8438C106.8 86.2188 106.342 87.2604 105.425 87.9688C104.529 88.6562 103.31 89 101.769 89C101.769 87.5625 101.519 86.2292 101.019 85C100.54 83.7708 99.7687 82.7812 98.7062 82.0312C97.6646 81.2604 96.2896 80.875 94.5812 80.875C92.1854 80.875 90.2792 81.5312 88.8625 82.8438C87.4667 84.1354 86.7687 85.9062 86.7687 88.1562C86.7687 90.6771 87.4979 92.6667 88.9562 94.125C89.7479 94.8958 90.7687 95.6354 92.0187 96.3438C93.2896 97.0521 94.8521 97.7812 96.7062 98.5312C98.5812 99.3021 100.248 100.115 101.706 100.969C103.185 101.823 104.435 102.771 105.456 103.812C106.477 104.875 107.258 106.062 107.8 107.375C108.342 108.667 108.612 110.135 108.612 111.781C108.612 115.781 107.185 118.938 104.331 121.25C101.54 123.5 97.7167 124.625 92.8625 124.625ZM135.231 121.25C136.002 121.25 136.71 121.208 137.356 121.125C138.002 121.042 138.658 120.938 139.325 120.812V123.625C138.742 123.896 137.877 124.125 136.731 124.312C135.606 124.521 134.575 124.625 133.637 124.625C130.367 124.625 128.012 123.896 126.575 122.438C125.096 120.938 124.356 118.365 124.356 114.719V93.3438H119.481V90.7812C120.252 90.7812 121.096 90.625 122.012 90.3125C122.95 90 123.773 89.4792 124.481 88.75C125.21 87.9583 125.794 87.0208 126.231 85.9375C126.69 84.8333 127.085 83.4583 127.419 81.8125H130.356V89.6875H138.731V93.3438H130.356V114.906C130.356 117.094 130.794 118.698 131.669 119.719C132.565 120.74 133.752 121.25 135.231 121.25ZM180.631 106.781C180.631 112.802 179.35 117.281 176.787 120.219C174.246 123.156 170.517 124.625 165.6 124.625C160.892 124.625 157.267 123.156 154.725 120.219C153.454 118.74 152.475 116.885 151.787 114.656C151.1 112.406 150.756 109.781 150.756 106.781C150.756 100.802 152.017 96.3542 154.537 93.4375C157.079 90.5208 160.829 89.0625 165.787 89.0625C170.537 89.0625 174.173 90.5104 176.694 93.4062C177.985 94.8646 178.965 96.7083 179.631 98.9375C180.298 101.167 180.631 103.781 180.631 106.781ZM156.944 106.781C156.944 109.156 157.1 111.25 157.412 113.062C157.725 114.854 158.235 116.365 158.944 117.594C160.34 120.073 162.6 121.312 165.725 121.312C168.829 121.312 171.079 120.073 172.475 117.594C173.162 116.365 173.652 114.854 173.944 113.062C174.256 111.25 174.412 109.156 174.412 106.781C174.412 104.406 174.256 102.323 173.944 100.531C173.631 98.7396 173.131 97.2396 172.444 96.0312C171.048 93.6354 168.787 92.4375 165.662 92.4375C162.558 92.4375 160.308 93.6354 158.912 96.0312C158.225 97.2396 157.725 98.7396 157.412 100.531C157.1 102.323 156.944 104.406 156.944 106.781ZM209.375 121.312H211.156V124H192.688V121.312H192.875C194.479 121.312 195.75 121.021 196.688 120.438C197.646 119.854 198.125 118.615 198.125 116.719V96.75C198.125 94.9583 197.635 93.7812 196.656 93.2188C195.677 92.6562 194.417 92.375 192.875 92.375H192.688V89.6875H202.531L203.75 96.0312H204.062C204.688 94.6146 205.323 93.3854 205.969 92.3438C206.635 91.3021 207.5 90.5 208.562 89.9375C209.625 89.3542 211.052 89.0625 212.844 89.0625C217.448 89.0625 219.75 90.6146 219.75 93.7188C219.75 96.7604 217.76 98.2812 213.781 98.2812C213.781 96.5104 213.531 95.2396 213.031 94.4688C212.531 93.6771 211.656 93.2812 210.406 93.2812C209.615 93.2812 208.906 93.5 208.281 93.9375C207.073 94.8125 206.135 96.2604 205.469 98.2812C205.135 99.1979 204.875 100.177 204.688 101.219C204.479 102.24 204.333 103.25 204.25 104.25C204.167 105.25 204.125 106.156 204.125 106.969V117.031C204.125 118.802 204.604 119.958 205.562 120.5C206.521 121.042 207.792 121.312 209.375 121.312ZM249.994 92.375V89.6875H263.306V92.375H263.119C261.744 92.375 260.754 92.75 260.15 93.5C259.567 94.2292 258.931 95.5208 258.244 97.375L248.525 124.25C248.15 125.271 247.785 126.229 247.431 127.125C247.077 128.042 246.733 128.896 246.4 129.688C245.067 132.812 243.577 135.073 241.931 136.469C241.035 137.198 240.046 137.781 238.962 138.219C237.858 138.656 236.587 138.958 235.15 139.125C233.712 139.292 232.046 139.375 230.15 139.375H229.587V136.344C231.754 136.344 233.619 136.021 235.181 135.375C236.744 134.729 238.098 133.844 239.244 132.719C240.369 131.594 241.306 130.26 242.056 128.719C242.827 127.198 243.473 125.542 243.994 123.75L232.15 95.7812C231.587 94.4896 231.004 93.6042 230.4 93.125C229.796 92.625 228.858 92.375 227.587 92.375H227.4V89.6875H242.775V92.375H242.587C240.025 92.375 238.744 93.4062 238.744 95.4688C238.744 96.1771 238.91 96.9583 239.244 97.8125L243.931 109.219C244.265 110.052 244.65 111.073 245.087 112.281C245.525 113.49 245.921 114.667 246.275 115.812C246.65 116.938 246.89 117.833 246.994 118.5H247.181C247.41 117.562 247.723 116.427 248.119 115.094C248.535 113.74 249.015 112.292 249.556 110.75L253.837 98.2812C254.212 97.2396 254.4 96.3229 254.4 95.5312C254.4 93.4271 252.994 92.375 250.181 92.375H249.994Z" fill="black"/>
</svg>
