<svg width="486" height="150" viewBox="0 0 486 150" fill="none" xmlns="http://www.w3.org/2000/svg">
<rect y="101.5" width="53" height="6" transform="rotate(-90 0 101.5)" fill="#F4772F"/>
<path d="M74.8438 38.0938C74.8438 45.2812 73.1146 50.9688 69.6562 55.1562C67.9479 57.2188 65.8438 58.8125 63.3438 59.9375C60.8438 61.0625 57.9792 61.625 54.75 61.625C51.3542 61.625 48.3958 61.0625 45.875 59.9375C43.3542 58.8125 41.2604 57.2188 39.5938 55.1562C37.9271 53.0938 36.6771 50.6146 35.8438 47.7188C35.0104 44.8021 34.5938 41.5729 34.5938 38.0312C34.5938 34.4896 35.0104 31.2812 35.8438 28.4062C36.6771 25.5104 37.9271 23.0417 39.5938 21C41.2604 18.9583 43.3646 17.3854 45.9062 16.2812C48.4479 15.1562 51.4167 14.5938 54.8125 14.5938C58.0417 14.5938 60.8958 15.1562 63.375 16.2812C65.8542 17.3854 67.9479 18.9583 69.6562 21C73.1146 25.1875 74.8438 30.8854 74.8438 38.0938ZM41.6875 38.0938C41.6875 41.2604 41.9167 44.0833 42.375 46.5625C42.8542 49.0417 43.6146 51.1458 44.6562 52.875C45.6979 54.5833 47.0417 55.8958 48.6875 56.8125C50.3542 57.7292 52.375 58.1875 54.75 58.1875C57.125 58.1875 59.1458 57.7292 60.8125 56.8125C62.4792 55.8958 63.8229 54.5833 64.8438 52.875C65.8854 51.1458 66.625 49.0417 67.0625 46.5625C67.5208 44.0833 67.75 41.2604 67.75 38.0938C67.75 34.9271 67.5208 32.1042 67.0625 29.625C66.625 27.125 65.8854 25.0208 64.8438 23.3125C63.8229 21.6042 62.4896 20.3021 60.8438 19.4062C59.1979 18.5104 57.1875 18.0625 54.8125 18.0625C52.4375 18.0625 50.4167 18.5104 48.75 19.4062C47.0833 20.3021 45.7292 21.6042 44.6875 23.3125C43.625 25.0208 42.8542 27.125 42.375 29.625C41.9167 32.1042 41.6875 34.9271 41.6875 38.0938ZM107.181 26.6875H118.619V54.0312C118.619 55.8021 119.098 56.9583 120.056 57.5C121.015 58.0417 122.285 58.3125 123.869 58.3125H124.056V61H113.9L113.056 55.8125H112.744C111.535 58.0833 110.046 59.625 108.275 60.4375C106.504 61.2292 104.535 61.625 102.369 61.625C98.8896 61.625 96.2854 60.6354 94.5563 58.6562C92.7229 56.5729 91.8063 53.3854 91.8063 49.0938V33.75C91.8063 31.9583 91.3167 30.7812 90.3375 30.2188C89.3583 29.6562 88.0979 29.375 86.5563 29.375H86.3688V26.6875H97.8375V48.7812C97.8375 51.5729 98.3063 53.7292 99.2438 55.25C100.202 56.7708 101.973 57.5312 104.556 57.5312C105.973 57.5312 107.192 57.2812 108.213 56.7812C109.233 56.2604 110.067 55.5521 110.713 54.6562C111.379 53.7396 111.858 52.6562 112.15 51.4062C112.463 50.1354 112.619 48.7292 112.619 47.1875V34C112.619 32.0833 112.14 30.8333 111.181 30.25C110.244 29.6667 108.973 29.375 107.369 29.375H107.181V26.6875ZM150.738 58.3125H152.519V61H134.05V58.3125H134.238C135.842 58.3125 137.113 58.0208 138.05 57.4375C139.008 56.8542 139.488 55.6146 139.488 53.7188V33.75C139.488 31.9583 138.998 30.7812 138.019 30.2188C137.04 29.6562 135.779 29.375 134.238 29.375H134.05V26.6875H143.894L145.113 33.0312H145.425C146.05 31.6146 146.685 30.3854 147.331 29.3438C147.998 28.3021 148.863 27.5 149.925 26.9375C150.988 26.3542 152.415 26.0625 154.206 26.0625C158.81 26.0625 161.113 27.6146 161.113 30.7188C161.113 33.7604 159.123 35.2812 155.144 35.2812C155.144 33.5104 154.894 32.2396 154.394 31.4688C153.894 30.6771 153.019 30.2812 151.769 30.2812C150.977 30.2812 150.269 30.5 149.644 30.9375C148.435 31.8125 147.498 33.2604 146.831 35.2812C146.498 36.1979 146.238 37.1771 146.05 38.2188C145.842 39.2396 145.696 40.25 145.613 41.25C145.529 42.25 145.488 43.1562 145.488 43.9688V54.0312C145.488 55.8021 145.967 56.9583 146.925 57.5C147.883 58.0417 149.154 58.3125 150.738 58.3125ZM90.4875 122.625C87.1958 122.625 84.6333 122.052 82.8 120.906C80.8833 119.74 79.925 118.052 79.925 115.844C79.925 114.302 80.3521 113.188 81.2062 112.5C82.0812 111.792 82.9979 111.438 83.9562 111.438C83.9562 113.771 84.4771 115.708 85.5187 117.25C86.5604 118.792 88.3417 119.562 90.8625 119.562C93.0292 119.562 94.7479 119.052 96.0187 118.031C97.2896 116.99 97.925 115.562 97.925 113.75C97.925 112.958 97.8104 112.281 97.5812 111.719C97.3521 111.135 96.9354 110.594 96.3312 110.094C95.7479 109.594 94.9354 109.083 93.8937 108.562C92.8729 108.042 91.5917 107.448 90.05 106.781C88.4042 106.052 86.9667 105.354 85.7375 104.688C84.5292 104 83.5292 103.26 82.7375 102.469C81.9458 101.677 81.3521 100.781 80.9562 99.7812C80.5604 98.7604 80.3625 97.5521 80.3625 96.1562C80.3625 93.2604 81.4667 91.0208 83.675 89.4375C85.8625 87.8958 88.7792 87.125 92.425 87.125C93.9458 87.125 95.2896 87.2812 96.4562 87.5938C97.6229 87.8854 98.6021 88.3021 99.3937 88.8438C100.977 89.9062 101.769 91.2917 101.769 93C101.769 94.1667 101.362 95.1042 100.55 95.8125C99.7583 96.5 98.6229 96.8438 97.1437 96.8438C97.1437 94.6979 96.6958 93.0312 95.8 91.8438C94.925 90.6562 93.5396 90.0625 91.6437 90.0625C89.6229 90.0625 88.1021 90.5104 87.0812 91.4062C86.0604 92.3021 85.55 93.5625 85.55 95.1875C85.55 96.7292 86.1646 97.9792 87.3937 98.9375C88.0187 99.4375 88.8312 99.9271 89.8312 100.406C90.8521 100.865 92.0708 101.385 93.4875 101.969C95.175 102.677 96.6229 103.375 97.8312 104.062C99.0604 104.75 100.06 105.5 100.831 106.312C102.352 107.896 103.112 109.99 103.112 112.594C103.112 114.26 102.81 115.719 102.206 116.969C101.602 118.198 100.748 119.24 99.6437 120.094C97.4354 121.781 94.3833 122.625 90.4875 122.625ZM130.512 119.312H130.7V122H113.481V119.312H113.981C115.585 119.312 116.856 119.021 117.794 118.438C118.752 117.854 119.231 116.615 119.231 114.719V80.4062C119.231 78.6146 118.742 77.4479 117.762 76.9062C116.783 76.3438 115.523 76.0625 113.981 76.0625H113.481V73.375H125.262V87.4375C125.262 88.0208 125.252 88.6354 125.231 89.2812C125.21 89.9062 125.179 90.4896 125.137 91.0312C125.117 91.3438 125.096 91.6562 125.075 91.9688C125.054 92.2812 125.033 92.5833 125.012 92.875H125.325C127.242 89 130.377 87.0625 134.731 87.0625C138.419 87.0625 141.21 88.0521 143.106 90.0312C145.065 92.1146 146.044 95.3021 146.044 99.5938V114.719C146.044 116.594 146.471 117.833 147.325 118.438C148.2 119.021 149.419 119.312 150.981 119.312H151.169V122H140.044V99.9062C140.044 97.1146 139.523 94.9583 138.481 93.4375C137.44 91.9167 135.617 91.1562 133.012 91.1562C130.408 91.1562 128.46 92.0938 127.169 93.9688C125.898 95.7604 125.262 98.2812 125.262 101.531V115.031C125.262 116.802 125.742 117.958 126.7 118.5C127.658 119.042 128.929 119.312 130.512 119.312ZM192.756 104.781C192.756 110.802 191.475 115.281 188.913 118.219C186.371 121.156 182.642 122.625 177.725 122.625C173.017 122.625 169.392 121.156 166.85 118.219C165.579 116.74 164.6 114.885 163.913 112.656C163.225 110.406 162.881 107.781 162.881 104.781C162.881 98.8021 164.142 94.3542 166.663 91.4375C169.204 88.5208 172.954 87.0625 177.913 87.0625C182.663 87.0625 186.298 88.5104 188.819 91.4062C190.11 92.8646 191.09 94.7083 191.756 96.9375C192.423 99.1667 192.756 101.781 192.756 104.781ZM169.069 104.781C169.069 107.156 169.225 109.25 169.538 111.062C169.85 112.854 170.36 114.365 171.069 115.594C172.465 118.073 174.725 119.312 177.85 119.312C180.954 119.312 183.204 118.073 184.6 115.594C185.288 114.365 185.777 112.854 186.069 111.062C186.381 109.25 186.538 107.156 186.538 104.781C186.538 102.406 186.381 100.323 186.069 98.5312C185.756 96.7396 185.256 95.2396 184.569 94.0312C183.173 91.6354 180.913 90.4375 177.788 90.4375C174.683 90.4375 172.433 91.6354 171.038 94.0312C170.35 95.2396 169.85 96.7396 169.538 98.5312C169.225 100.323 169.069 102.406 169.069 104.781ZM238.469 104.781C238.469 110.885 237.344 115.406 235.094 118.344C232.906 121.198 229.677 122.625 225.406 122.625C223.073 122.625 221.104 122.125 219.5 121.125C217.896 120.125 216.604 118.75 215.625 117H215.375C215.396 117.542 215.417 118.073 215.438 118.594C215.458 119.115 215.479 119.615 215.5 120.094C215.521 120.344 215.531 120.792 215.531 121.438C215.552 122.062 215.573 122.656 215.594 123.219C215.615 123.802 215.625 124.146 215.625 124.25V130.375C215.625 132.167 216.104 133.333 217.062 133.875C218.042 134.417 219.312 134.688 220.875 134.688H221.062V137.375H203.844V134.688H204.344C205.948 134.688 207.219 134.385 208.156 133.781C209.115 133.198 209.594 131.958 209.594 130.062V94.75C209.594 92.9583 209.104 91.7812 208.125 91.2188C207.146 90.6562 205.885 90.375 204.344 90.375H203.531V87.6875H214.719L215.375 93.4688H215.625C216.604 91.4479 217.865 89.875 219.406 88.75C220.948 87.625 222.948 87.0625 225.406 87.0625C229.677 87.0625 232.906 88.4792 235.094 91.3125C237.344 94.25 238.469 98.7396 238.469 104.781ZM224.312 91.1562C221.083 91.1562 218.802 92.2708 217.469 94.5C216.802 95.625 216.323 97.0417 216.031 98.75C215.76 100.458 215.625 102.469 215.625 104.781C215.625 107.01 215.76 108.979 216.031 110.688C216.323 112.396 216.812 113.833 217.5 115C218.167 116.167 219.052 117.052 220.156 117.656C221.281 118.24 222.688 118.531 224.375 118.531C227.125 118.531 229.146 117.354 230.438 115C231.062 113.833 231.521 112.396 231.812 110.688C232.104 108.958 232.25 106.969 232.25 104.719C232.25 100.094 231.646 96.6979 230.438 94.5312C229.167 92.2812 227.125 91.1562 224.312 91.1562Z" fill="white"/>
</svg>
